<svg width="24" height="24" viewBox="0 0 24 24" fill="none" xmlns="http://www.w3.org/2000/svg">
<path fill-rule="evenodd" clip-rule="evenodd" d="M11.2258 5.30259C8.79899 5.76539 7.73697 8.58508 9.26876 10.4987C11.0611 12.7379 14.6562 11.6643 14.9792 8.79352C15.2113 6.73058 13.2591 4.91486 11.2258 5.30259ZM12.1936 6.92286C13.3528 7.22479 13.7567 8.696 12.9197 9.56768C11.9274 10.601 10.1895 9.89485 10.1895 8.45833C10.1895 7.40672 11.1693 6.65607 12.1936 6.92286ZM7.634 11.6859C6.85758 11.9759 6.65032 12.9922 7.25843 13.5274C7.54121 13.7764 8.7624 14.3323 9.49004 14.5433C9.59263 14.573 9.68257 14.6018 9.6899 14.6071C9.69727 14.6125 9.33964 14.984 8.89517 15.4326C8.45071 15.8812 8.05773 16.2972 8.02189 16.357C7.59004 17.0778 8.10607 17.9892 8.946 17.9892C9.41543 17.9892 9.37079 18.0217 10.6482 16.75L11.7754 15.628L12.8866 16.7372C14.124 17.9724 14.1252 17.9733 14.5436 17.9981C15.3519 18.046 15.9281 17.1836 15.5778 16.4503C15.5131 16.3147 15.3253 16.1073 14.6712 15.4484C14.2174 14.9914 13.8523 14.6129 13.8598 14.6072C13.8673 14.6016 14.0063 14.5581 14.1688 14.5106C14.8487 14.3115 16.014 13.7717 16.292 13.5271C17.0329 12.8748 16.561 11.6507 15.5675 11.648L15.272 11.6472L14.7592 11.9028C13.6289 12.466 12.8379 12.6692 11.775 12.6692C10.712 12.6692 9.92042 12.4659 8.791 11.9028C8.20673 11.6114 7.958 11.5648 7.634 11.6859Z" fill="white"/>
<circle cx="12" cy="12" r="11.5" stroke="white"/>
</svg>
