<svg width="24" height="24" viewBox="0 0 24 24" fill="none" xmlns="http://www.w3.org/2000/svg">
<path d="M11.3553 8.25207C10.5907 8.24382 9.94005 8.25207 9.57404 8.43372C9.33002 8.55344 9.14295 8.82592 9.25682 8.8383C9.39916 8.85894 9.72044 8.92913 9.89125 9.16444C10.1109 9.46581 10.1027 10.147 10.1027 10.147C10.1027 10.147 10.2247 12.0213 9.80585 12.2566C9.5171 12.4176 9.12261 12.0915 8.26857 10.6011C7.83342 9.83324 7.504 8.98692 7.504 8.98692C7.504 8.98692 7.443 8.83004 7.32913 8.74748C7.19086 8.64427 6.99971 8.61124 6.99971 8.61124L4.96222 8.62363C4.96222 8.62363 4.6572 8.63601 4.5474 8.76812C4.44573 8.89197 4.53926 9.13554 4.53926 9.13554C4.53926 9.13554 6.13347 12.9213 7.93916 14.8286C9.59437 16.579 11.4733 16.4634 11.4733 16.4634H12.3273C12.3273 16.4634 12.5835 16.4345 12.7136 16.2941C12.8357 16.162 12.8316 15.9143 12.8316 15.9143C12.8316 15.9143 12.8153 14.7543 13.344 14.5809C13.8686 14.4157 14.5356 15.7038 15.2473 16.1992C15.7882 16.5749 16.1989 16.4923 16.1989 16.4923L18.1022 16.4634C18.1022 16.4634 19.0946 16.4015 18.6228 15.6047C18.5862 15.5428 18.3503 15.0185 17.2116 13.9451C16.0159 12.8222 16.1745 13.0038 17.6142 11.0594C18.4886 9.87452 18.8383 9.15206 18.7285 8.8383C18.6228 8.54519 17.9802 8.62363 17.9802 8.62363L15.837 8.63601C15.837 8.63601 15.6784 8.61537 15.5605 8.68555C15.4466 8.75573 15.3734 8.92087 15.3734 8.92087C15.3734 8.92087 15.0318 9.83737 14.5803 10.6176C13.6287 12.2607 13.2423 12.3515 13.0878 12.2483C12.7258 12.0089 12.8153 11.2906 12.8153 10.7828C12.8153 9.18508 13.0553 8.52454 12.3517 8.35115C12.1199 8.29336 11.9491 8.2562 11.3553 8.25207Z" fill="white"/>
<circle cx="12" cy="12" r="11.5" stroke="white"/>
</svg>
