<svg width="24" height="24" viewBox="0 0 24 24" fill="none" xmlns="http://www.w3.org/2000/svg">
<path fill-rule="evenodd" clip-rule="evenodd" d="M17.4008 6.77478C17.1415 6.82633 16.675 6.99009 12.4541 8.51117C10.2555 9.30347 8.04898 10.0986 7.5508 10.278C4.79548 11.2706 4.71171 11.3087 4.66355 11.5935C4.61606 11.8743 4.63925 11.883 7.64527 12.7123C8.21374 12.8692 8.07683 12.663 8.56559 14.0985C9.42345 16.6181 9.43048 16.6324 9.80939 16.6324C10.0245 16.6324 10.1617 16.5224 11.3374 15.408L11.8272 14.9437L12.2674 15.2443C15.4707 17.4312 15.7957 17.5743 15.9788 16.8784C16.216 15.9768 17.5817 10.0801 18.0507 7.93259C18.2024 7.23813 18.1942 7.11766 17.9815 6.91436C17.8118 6.75212 17.6772 6.71978 17.4008 6.77478ZM15.8068 8.68345C15.8189 8.76864 15.249 9.25571 12.6473 11.3834C10.3774 13.2399 9.95755 13.6011 9.92924 13.7223C9.92277 13.75 9.88509 14.0496 9.8455 14.3881C9.7098 15.5479 9.66449 15.7284 9.57133 15.4801C8.59716 12.884 8.5739 12.6256 9.27783 12.2207C12.6665 10.2716 14.9959 8.95287 15.3889 8.76099C15.6944 8.61183 15.7939 8.59336 15.8068 8.68345Z" fill="white"/>
<circle cx="12" cy="12" r="11.5" stroke="white"/>
</svg>
