<svg width="100" height="99" viewBox="0 0 100 99" fill="none" xmlns="http://www.w3.org/2000/svg">
<path fill-rule="evenodd" clip-rule="evenodd" d="M44.4712 0.0642073C44.4195 0.0716293 43.832 0.114574 43.1655 0.159619C42.499 0.204618 41.9259 0.263945 41.892 0.291439C41.8411 0.332656 41.8449 0.757621 41.9136 2.72201C41.9595 4.03135 42.0328 6.18441 42.0764 7.50658C42.1711 10.3689 41.8641 9.99606 44.1034 9.96866C47.972 9.92133 49.5753 8.99331 50.2521 6.40963C51.2321 2.668 48.3515 -0.493978 44.4712 0.0642073ZM46.5128 1.15747C50.0974 2.03802 50.3041 7.5781 46.7957 8.73816C46.2477 8.91937 45.9301 8.95377 44.5138 8.98532L43.1944 9.01473L43.1634 8.01562C43.1464 7.46607 43.0873 5.70823 43.0323 4.1093C42.9772 2.51036 42.9442 1.19024 42.9588 1.17568C43.1134 1.02196 45.9029 1.00763 46.5128 1.15747ZM57.4003 1.18146C55.4078 1.5148 53.9018 3.05693 53.4678 5.2084C52.1446 11.768 61.8536 13.857 63.5045 7.3679C64.4298 3.73097 61.2747 0.533376 57.4003 1.18146ZM59.1228 2.19183C61.3651 2.55634 62.7799 4.33971 62.529 6.48516C62.2092 9.219 60.0805 10.7868 57.5261 10.1698C52.5194 8.96039 54.0394 1.36538 59.1228 2.19183ZM68.8185 5.03559C68.6881 5.29396 68.0889 6.42303 67.487 7.54458C66.8851 8.66613 66.1438 10.0564 65.8396 10.6341C65.5355 11.2117 65.1202 11.9913 64.9167 12.3665C64.7132 12.7417 64.5466 13.0699 64.5466 13.096C64.5466 13.185 67.6934 14.9524 68.3472 15.2306C71.5461 16.5915 74.0361 13.7838 71.7577 11.3848C71.6013 11.2201 71.4996 11.1005 71.5319 11.1192C72.4459 11.6463 74.1472 10.4395 74.3707 9.10533C74.6188 7.6244 73.7999 6.8198 70.3354 5.1402C68.9205 4.45426 69.1056 4.467 68.8185 5.03559ZM70.8045 6.43815C72.8498 7.45379 73.3058 7.883 73.3037 8.79025C73.3009 10.0276 72.2003 10.7218 70.8863 10.315C70.5251 10.2032 68.0244 8.91731 68.0226 8.84253C68.021 8.77368 69.5909 5.87283 69.6297 5.87283C69.6497 5.87283 70.1783 6.12722 70.8045 6.43815ZM35.5018 7.9231C18.2706 12.5489 5.11349 27.0511 2.21192 44.6162C1.84286 46.8504 1.83835 47.0602 2.15998 47.0324L2.30062 47.0202L2.38322 46.39C4.78021 28.0954 17.7673 13.2162 35.5921 8.34293C36.5734 8.07467 36.4737 8.1269 36.4141 7.91241C36.354 7.69619 36.3468 7.69629 35.5018 7.9231ZM68.8634 10.3616C70.3755 11.1627 70.6862 11.3566 71.0506 11.7269C72.4849 13.1844 71.0378 15.148 69.0313 14.4668C68.5505 14.3036 66.2028 13.0658 65.9619 12.8485C65.9089 12.8007 66.0144 12.5728 66.58 11.5141C66.955 10.8118 67.321 10.1165 67.3933 9.96889C67.5585 9.63136 67.41 9.59168 68.8634 10.3616ZM78.9771 11.2048C78.7224 11.4942 78.0287 12.2865 77.4355 12.9655C76.8424 13.6445 75.9133 14.7058 75.3709 15.3239C74.0422 16.8383 73.0716 17.9638 73.0619 18.0016C73.0517 18.0413 73.7742 18.6628 73.8305 18.6628C73.8537 18.6628 74.3758 18.0852 74.9906 17.3792C75.6054 16.6731 76.1177 16.0955 76.129 16.0955C76.1403 16.0955 76.5239 16.4158 76.9814 16.8073C77.4389 17.1989 77.8919 17.5822 77.988 17.6592L78.1628 17.7993L78.0017 19.6898C77.9131 20.7295 77.8283 21.6991 77.8132 21.8445L77.7857 22.1087L78.2587 22.5159C78.8391 23.0154 78.7474 23.2663 78.9438 20.6424C79.0359 19.4124 79.1184 18.3829 79.1271 18.3546C79.1375 18.321 79.2627 18.345 79.4876 18.4238C81.7638 19.221 84.1349 16.9235 83.3598 14.6718C83.001 13.6292 82.3757 12.9793 79.7537 10.9241L79.4404 10.6786L78.9771 11.2048ZM80.5577 12.8233C82.7345 14.6471 83.0639 15.8497 81.7181 17.0589C80.6223 18.0435 79.619 17.8258 77.7189 16.191C77.2024 15.7466 76.7745 15.3788 76.7681 15.3736C76.7617 15.3685 77.0658 15.0089 77.4439 14.5746C79.4231 12.3008 79.6257 12.0792 79.6909 12.1155C79.7269 12.1354 80.1169 12.454 80.5577 12.8233ZM86.0036 20.154C81.6157 20.9543 80.0106 25.6841 83.0385 28.8912C86.8199 32.8963 93.5887 28.5428 91.4411 23.4869C90.47 21.2006 88.1298 19.7662 86.0036 20.154ZM87.8858 21.365C90.7342 22.2736 91.7022 25.8453 89.6749 27.9665C87.3206 30.4299 83.6352 29.5486 82.6431 26.2849C81.7776 23.4377 84.9755 20.4367 87.8858 21.365ZM23.5387 24.344C22.8221 24.3707 22.9512 24.6572 23.7853 24.8913C26.306 25.5987 28.0531 27.268 28.6238 29.5144C28.8968 30.5886 28.8805 29.2642 28.8805 50.3811V69.8928L28.7771 70.4568C28.2091 73.5572 26.51 75.1638 22.6113 76.2866C22.3659 76.3573 22.144 76.4351 22.1182 76.4595C22.0479 76.5261 47.8494 76.4795 48.9089 76.4112C65.3322 75.3525 73.7226 67.3253 74.5067 51.9215C75.3379 35.5912 66.3401 25.5386 49.8716 24.3984C49.1668 24.3496 24.7411 24.2991 23.5387 24.344ZM48.6272 27.2994C59.6962 28.0588 66.861 37.8695 66.2338 51.408C66.1075 54.1345 66.1294 54.3417 66.6591 55.4224C67.3006 56.7309 67.5478 57.7402 67.6195 59.3434L67.6446 59.9036L67.5501 59.6001C67.2316 58.5771 67.09 58.2009 66.8028 57.6163C66.1886 56.3654 65.3452 55.2738 64.1744 54.2135C62.8353 53.0009 60.6604 51.6729 53.4768 47.6813C44.9138 42.9232 41.8226 39.3628 41.3391 33.7012C41.2798 33.0062 41.2609 33.0036 41.1199 33.6701C40.4883 36.6539 41.4322 40.3376 43.6016 43.3559C44.9021 45.1653 46.3822 46.6232 51.4917 51.128C57.0656 56.0421 58.4342 57.5371 59.7552 60.1545C61.7999 64.2061 60.8735 67.9156 57.1932 70.4123C48.8399 76.0792 37.4649 73.6933 35.7601 65.9169C35.4936 64.7011 35.5061 65.1412 35.495 56.6127C35.4823 46.8401 35.611 48.0856 34.5012 46.9971C33.1672 45.6888 32.3414 44.541 31.5243 42.8595C31.1065 41.9997 31.1227 41.9973 31.7905 42.8203C34.2302 45.827 36.3479 47.435 43.3586 51.6045C52.1129 56.811 54.473 58.9805 55.8623 63.0984C56.1482 63.9458 56.1648 63.9136 56.1623 62.5176C56.1591 60.6868 55.7061 59.1437 54.6045 57.2108C53.2557 54.844 51.9714 53.4885 46.6681 48.8346C43.1558 45.7522 41.4833 44.1663 40.5213 43.0058C33.4487 34.4741 37.5439 26.539 48.6272 27.2994ZM93.2393 32.5537C91.78 32.9244 89.6932 33.4507 88.602 33.7231C87.5107 33.9956 86.6179 34.2389 86.6179 34.2637C86.6179 34.2886 86.6823 34.515 86.761 34.7669L86.9042 35.2249L90.5026 34.322L94.1011 33.4191L93.8697 33.6426C93.7425 33.7655 92.4128 34.9896 90.9147 36.3629C89.4167 37.7362 88.1673 38.8894 88.1383 38.9256C88.0503 39.0355 88.3269 39.8472 88.4623 39.8762C88.5668 39.8986 92.1764 40.3854 94.9971 40.7574L96.4966 40.9553L95.9128 41.1815C95.5917 41.3059 94.3146 41.7907 93.0749 42.2588C90.0096 43.4163 89.6529 43.5534 89.6078 43.5917C89.5614 43.6311 89.8442 44.5696 89.9025 44.5696C89.9246 44.5696 90.1931 44.4733 90.4992 44.3556C90.8052 44.238 91.8058 43.8613 92.7227 43.5187C95.2822 42.5622 98.9415 41.1608 98.9742 41.1245C99.0661 41.0226 98.7183 40.1832 98.5738 40.1581C98.4938 40.1443 97.2344 39.9871 95.7751 39.8089C88.5268 38.9237 89.3832 39.0764 89.7772 38.7391C89.938 38.6014 90.8091 37.8224 91.7131 37.0078C92.617 36.1932 94.0367 34.9151 94.8678 34.1676L96.3789 32.8085L96.2645 32.4457C96.2016 32.2462 96.1374 32.0357 96.1219 31.978C96.0814 31.8275 96.16 31.8118 93.2393 32.5537ZM94.6011 47.2089C92.367 47.2941 90.4258 47.3653 90.2873 47.367L90.0356 47.3703L90.068 48.3389C90.1903 51.991 90.2785 54.0618 90.3134 54.0964C90.3356 54.1186 90.554 54.1214 90.7987 54.1027L91.2435 54.0687L91.2288 53.4152C91.2208 53.0558 91.184 51.953 91.147 50.9646C91.1101 49.9761 91.0797 48.9962 91.0795 48.7869L91.0791 48.4064L91.6074 48.3784C91.898 48.3629 92.6587 48.3346 93.298 48.3154L94.4603 48.2805L94.461 48.4206C94.4633 48.8839 94.6484 53.3611 94.666 53.3786C94.7477 53.4598 95.6342 53.3274 95.6335 53.2341C95.6331 53.1797 95.5915 52.0439 95.5411 50.7103C95.4906 49.3766 95.4592 48.2756 95.4713 48.2636C95.5178 48.2173 98.7998 48.1193 98.8272 48.1634C98.8425 48.188 98.8918 49.2956 98.9369 50.6249C98.9819 51.9542 99.0315 53.2151 99.047 53.4269L99.0752 53.812H99.5091C100.093 53.812 100.051 54.1684 99.9121 50.3811L99.7902 47.0669L99.2267 47.0605C98.9167 47.0569 96.8352 47.1237 94.6011 47.2089ZM1.81735 50.2994L0.206671 50.3123L0.22071 50.5801L0.2348 50.8479L1.49267 50.8712L2.75059 50.8945L1.71578 51.5247C0.363799 52.348 0.376149 52.2564 1.52747 52.9251C1.99167 53.1946 2.47189 53.4782 2.59454 53.5552L2.81761 53.6953L1.5262 53.7186L0.2348 53.742V53.9987V54.2554L2.01928 54.2684C4.12441 54.2838 4.01509 54.2973 4.01509 54.0201C4.01509 53.7687 4.09144 53.8238 2.48081 52.9128L1.39269 52.2973L2.68039 51.5362L3.96813 50.7752V50.5198V50.2644L3.69811 50.2754C3.54962 50.2815 2.70326 50.2922 1.81735 50.2994ZM2.11499 55.6851C0.102559 55.9018 0.336702 55.6711 0.512474 57.2646L0.659041 58.5933L0.893039 58.5791C1.02176 58.5713 1.13521 58.5569 1.14526 58.5471C1.15893 58.5337 1.02857 57.1676 0.947325 56.4732C0.940328 56.4135 2.02173 56.2444 2.06892 56.2978C2.07451 56.3041 2.1132 56.6244 2.1549 57.0095C2.1966 57.3946 2.24295 57.8014 2.25784 57.9136L2.28498 58.1176L2.51711 58.0954C2.81563 58.0669 2.79793 58.1631 2.68941 57.1592C2.5783 56.1311 2.52645 56.2392 3.16262 56.172L3.67439 56.1179L3.78127 57.1355L3.88815 58.1531H4.11319C4.39758 58.1531 4.40336 57.2888 4.12995 55.6441C4.09882 55.4567 4.26783 55.4532 2.11499 55.6851ZM90.0929 56.6769C90.0929 56.6865 89.9651 57.2274 89.8087 57.8789C89.1425 60.6557 89.0828 61.3114 89.3928 62.4467C90.4152 66.1914 95.9476 67.2042 98.194 64.058C98.8521 63.1363 99.0774 62.3909 99.4848 59.7882C99.7075 58.3647 99.9779 58.6062 97.6535 58.1528C96.5816 57.9437 94.4715 57.5221 92.9642 57.216C90.346 56.6842 90.0929 56.6367 90.0929 56.6769ZM94.4625 58.5972C96.4371 58.9956 98.1642 59.3438 98.3007 59.371C98.5454 59.42 98.5483 59.4226 98.5243 59.5687C97.9135 63.2809 97.2552 64.3355 95.2982 64.737C92.2561 65.3609 89.7649 63.0451 90.3248 60.1136C90.4811 59.2951 90.81 57.873 90.843 57.873C90.8591 57.873 92.4879 58.1989 94.4625 58.5972ZM0.610481 59.3668L0 59.4887L0.008077 59.7135C0.0189717 60.0154 0.0375674 60.0248 0.463026 59.9445C0.912903 59.8596 0.810719 59.6542 1.16301 61.3515L1.46323 62.7976L1.34207 62.8289C1.27548 62.8461 1.09736 62.8848 0.946247 62.9149L0.671532 62.9696L0.703559 63.187C0.753477 63.5258 0.736007 63.5238 1.73039 63.3029L2.05197 63.2315L2.02013 63.0203C2.00256 62.9041 1.97829 62.7833 1.96613 62.7518C1.95025 62.7106 2.39271 62.6058 3.5307 62.381C4.4034 62.2086 5.12485 62.0602 5.13391 62.0512C5.15175 62.0334 4.64505 59.5104 4.61833 59.4843C4.60941 59.4756 4.17945 59.5395 3.66289 59.6264C2.07667 59.8932 1.43012 59.839 1.28515 59.4272L1.22096 59.2449L0.610481 59.3668ZM4.36532 60.7554C4.43947 61.1342 4.50869 61.4769 4.51916 61.5172C4.5409 61.6009 1.92292 62.1648 1.8576 62.0904C1.83849 62.0686 1.74396 61.6622 1.64755 61.1872C1.55118 60.7123 1.46205 60.2874 1.44951 60.2432C1.42848 60.1688 1.43928 60.1679 1.59237 60.2315C1.83821 60.3336 2.60591 60.3146 3.38113 60.1873C3.74272 60.1278 4.08177 60.0765 4.13455 60.0731C4.22157 60.0675 4.24308 60.1312 4.36532 60.7554ZM4.39077 63.6829C3.86129 63.8447 3.08997 64.0829 2.67673 64.2121L1.92536 64.4471L1.93161 64.5849C1.94767 64.9375 1.93495 64.9304 3.67651 65.5745C4.56217 65.9021 5.29526 66.1785 5.3056 66.1888C5.31593 66.199 4.7433 66.3842 4.03302 66.6002C2.58492 67.0408 2.6725 66.9928 2.74768 67.3044C2.82183 67.6115 2.55416 67.664 5.42389 66.7791C6.49571 66.4486 6.42959 66.4892 6.35407 66.2086C6.28166 65.9395 6.46429 66.0295 4.59035 65.3395C2.72829 64.6541 2.76412 64.7922 4.32526 64.3174L5.62107 63.9233L5.59703 63.7806C5.51753 63.3085 5.59497 63.3148 4.39077 63.6829ZM6.22221 67.8696C5.92519 67.9984 5.18665 68.312 4.58105 68.5664C3.97541 68.8209 3.46302 69.0459 3.44236 69.0664C3.4217 69.087 3.55502 69.4494 3.73864 69.8717C4.20481 70.9441 4.62543 71.9415 4.62552 71.9747C4.62552 71.9901 4.48295 72.0617 4.30859 72.1337C3.88149 72.3102 3.83669 72.4203 4.05543 72.756C4.21974 73.008 5.34505 72.3046 5.22591 72.0243C5.17007 71.8929 5.13368 71.7777 5.145 71.7682C5.15631 71.7587 5.8207 71.4719 6.62137 71.1307C7.42204 70.7896 8.08389 70.5049 8.09216 70.498C8.12677 70.4689 7.89658 70.0095 7.84741 70.0095C7.81778 70.0095 7.1547 70.2826 6.37385 70.6163C5.59304 70.9501 4.93654 71.2232 4.91498 71.2232C4.85577 71.2232 4.10069 69.4387 4.14286 69.3984C4.17226 69.3703 5.67513 68.717 6.84546 68.2235C7.08778 68.1214 7.08693 68.125 6.94384 67.7847C6.86176 67.5893 6.87078 67.5882 6.22221 67.8696ZM85.5091 71.6878C85.2196 71.8076 85.2091 71.8636 85.2091 73.2833V74.584H83.895H82.5808L82.4275 74.7203L82.2741 74.8565V76.0001V77.1439L82.388 77.2644C82.5652 77.4519 82.756 77.4776 83.9741 77.4778C86.0043 77.4783 86.4277 77.2342 86.9703 75.7505C87.2582 74.963 87.3933 74.7678 87.9974 74.2666L88.1268 74.1592L88.112 73.0654L88.0971 71.9717L87.9437 71.8191L87.7902 71.6666L86.6993 71.6567C86.0992 71.6512 85.5636 71.6652 85.5091 71.6878ZM6.9879 72.633L5.38205 73.5258L5.50527 73.7399C5.57299 73.8576 5.63146 73.9588 5.63512 73.965C5.64202 73.9764 8.97764 74.4896 9.06227 74.4922C9.15093 74.4949 8.94703 74.6178 7.81825 75.2418L6.69477 75.8628L6.8334 76.0986C6.90966 76.2284 6.98827 76.3304 7.00804 76.3255C7.0427 76.3168 10.2203 74.586 10.2537 74.5576C10.2627 74.5499 10.2141 74.4413 10.1456 74.3163L10.0211 74.0889L8.32123 73.8407C7.38631 73.7041 6.60517 73.5778 6.5854 73.56C6.56558 73.5422 7.08839 73.2349 7.74715 72.8772C8.40586 72.5194 8.9451 72.2136 8.94538 72.1976C8.9467 72.1232 8.69687 71.7368 8.64841 71.7384C8.61831 71.7394 7.87108 72.1419 6.9879 72.633ZM87.8478 74.7449C87.6169 74.9523 87.4684 75.228 87.2304 75.8912C86.8487 76.9547 86.2296 77.57 85.4196 77.6908L85.2091 77.7221V78.8885V80.0548L85.3687 80.2135L85.5284 80.3722H86.6374H87.7463L87.9217 80.2125L88.0971 80.0528L88.1116 78.7688L88.1261 77.4848L89.4184 77.4698L90.7108 77.4548L90.8714 77.2804L91.0321 77.1061V76.0038V74.9015L90.8725 74.7428L90.7128 74.584H89.3699H88.027L87.8478 74.7449ZM10.4007 75.931C10.1547 76.1051 9.57361 76.5066 9.10927 76.8231C8.64488 77.1396 8.16476 77.4707 8.04224 77.5588L7.81951 77.719L7.96068 77.9229C8.0383 78.0351 8.11982 78.1379 8.14175 78.1514C8.16373 78.1649 8.46972 77.9769 8.82169 77.7337C9.17365 77.4905 9.48049 77.2914 9.50355 77.2914C9.53698 77.2914 10.6209 78.8093 10.6741 78.9307C10.6819 78.9485 10.3913 79.1673 10.0284 79.4169C9.27654 79.9341 9.32083 79.869 9.52595 80.1557L9.68331 80.3758L10.7587 79.6236C11.3501 79.2099 12.04 78.7315 12.2918 78.5604C12.8143 78.2054 12.7956 78.2401 12.6043 77.9795C12.4272 77.7385 12.4884 77.7204 11.7513 78.2317C11.4167 78.4638 11.1262 78.636 11.1057 78.6144C11.0196 78.5236 9.97902 77.009 9.97902 76.9746C9.97902 76.9539 10.2168 76.7713 10.5073 76.5687C10.7979 76.3661 11.0815 76.1658 11.1375 76.1236L11.2393 76.0469L11.0967 75.829C10.9176 75.5552 10.9351 75.5527 10.4007 75.931ZM12.5618 79.797C11.4317 80.199 10.9184 81.4032 11.4223 82.4702C11.7724 83.2117 13.0591 83.9682 13.1501 83.4861C13.2067 83.1859 13.1701 83.1088 12.9537 83.0722C11.8956 82.8936 11.4148 81.577 12.1221 80.7951C12.9694 79.8584 14.5161 80.3482 14.6192 81.5859C14.644 81.8827 14.6727 81.9109 14.9511 81.9119L15.1567 81.9126L15.1356 81.5497C15.0659 80.3533 13.6701 79.4027 12.5618 79.797ZM82.2208 81.6909C73.6616 91.5539 60.9051 97.4478 48.0989 97.4563L47.641 97.4567V97.6667C47.641 97.8727 47.644 97.8768 47.7936 97.8764C61.031 97.838 73.5873 92.129 82.3908 82.146C83.0142 81.4392 83.0043 81.4575 82.8353 81.3232C82.6495 81.1753 82.6885 81.152 82.2208 81.6909ZM15.8486 82.4144C15.7384 82.5364 15.1608 83.1244 14.5649 83.7211L13.4814 84.8062L13.6651 84.9931C13.9094 85.2418 13.8717 85.2593 14.4952 84.6085L15.0432 84.0365L15.308 84.2965L15.5728 84.5564L15.4303 85.5564L15.288 86.5564L15.5077 86.7782C15.7901 87.0632 15.7669 87.1127 15.9578 85.8187C16.1531 84.4946 15.9536 84.7031 17.2252 84.494C17.8997 84.3831 18.291 84.299 18.291 84.2648C18.291 84.1572 17.9117 83.864 17.8051 83.8892C17.7495 83.9024 17.3054 83.9803 16.8182 84.0625L15.9326 84.2119L15.6684 83.9493L15.4042 83.6866L15.9553 83.1373C16.575 82.5197 16.5624 82.545 16.3516 82.3419C16.146 82.1438 16.0851 82.1526 15.8486 82.4144ZM17.7744 86.0693C17.1933 86.7872 16.6661 87.4392 16.603 87.5183L16.4882 87.6622L16.6734 87.8198C16.9077 88.0191 16.7045 88.0436 18.6227 87.5841C20.5437 87.1237 20.3984 87.1206 19.9932 87.6134C18.4419 89.5001 18.5444 89.3305 18.8261 89.5441C19.0543 89.7171 18.8027 89.9782 20.9819 87.3073L21.3982 86.7971L21.2182 86.6439C20.9859 86.4462 21.1425 86.4272 19.233 86.8852C17.2583 87.3589 17.3843 87.4634 18.4145 86.2071C18.8881 85.6294 19.2753 85.1358 19.2749 85.1101C19.2743 85.0679 18.8949 84.7572 18.8499 84.7621C18.8395 84.7632 18.3555 85.3515 17.7744 86.0693ZM23.4043 87.2223C23.1146 87.9679 24.381 88.7898 24.9346 88.2155C25.009 88.1383 25.0608 88.0682 25.0498 88.0596C25.0387 88.051 24.9597 87.9959 24.8741 87.9371L24.7184 87.8302L24.6128 87.9289C24.3188 88.2034 23.7365 87.8458 23.8066 87.4336C23.8339 87.2729 23.8239 87.2492 23.6981 87.1753C23.5098 87.0648 23.4626 87.0724 23.4043 87.2223ZM21.9253 88.2007C20.1433 90.9046 20.2888 90.6309 20.5441 90.7987C20.7851 90.9573 20.5952 91.0017 22.427 90.3589C24.2703 89.712 24.155 89.721 23.7974 90.2525C23.6448 90.4794 23.3122 90.9879 23.0581 91.3826L22.5963 92.1003L22.7063 92.1828C22.7669 92.2282 22.8729 92.2985 22.942 92.3391L23.0677 92.4129L23.7487 91.3755C25.1815 89.1932 25.1232 89.2917 25.024 89.218C24.7066 88.9821 24.7057 88.9821 24.0436 89.2183C20.9462 90.3232 21.1742 90.3918 22.295 88.6924C22.9077 87.7635 22.8985 87.7998 22.5689 87.6156L22.3803 87.5102L21.9253 88.2007ZM27.5694 90.7288C27.5092 90.8257 26.0884 93.966 26.0762 94.029C26.0672 94.0761 26.1847 94.1533 26.4385 94.2668C29.2695 95.5336 28.9762 95.3544 28.81 95.7159C28.591 96.1922 28.5891 96.1707 28.8604 96.2867C28.9926 96.3433 29.107 96.3828 29.1146 96.3747C29.1328 96.3548 29.6553 95.2069 29.6553 95.1867C29.6553 95.178 29.5423 95.1128 29.4041 95.0418L29.153 94.9127L29.8033 93.4685C30.5626 91.7823 30.5111 91.9846 30.2132 91.8573C29.919 91.7315 30.0036 91.6176 29.3995 92.9522C29.1205 93.5683 28.8262 94.2115 28.7455 94.3815L28.5987 94.6904L27.7299 94.2964C26.6816 93.8209 26.7603 93.8956 26.925 93.5324C27.7114 91.7984 28.1072 90.908 28.0958 90.8985C27.9872 90.8077 27.5983 90.6824 27.5694 90.7288ZM31.6847 92.6371C30.836 95.0064 30.5006 95.9582 30.5006 95.9971C30.5006 96.0457 30.811 96.1643 32.2525 96.6668L33.0418 96.9419L33.105 96.7908C33.2446 96.4576 33.2887 96.492 32.2381 96.1153C31.7086 95.9255 31.2587 95.7539 31.2383 95.734C31.2056 95.7021 31.4711 94.8933 31.5675 94.7312C31.5961 94.6831 31.7801 94.7344 32.4025 94.9641C33.365 95.3193 33.3232 95.3158 33.4195 95.0498C33.4951 94.8407 33.4946 94.836 33.3956 94.7989C33.3401 94.7781 32.9566 94.639 32.5433 94.4898C32.1301 94.3406 31.7837 94.2125 31.7736 94.205C31.7428 94.1824 32.1048 93.2089 32.144 93.2089C32.1642 93.2089 32.5959 93.3559 33.1035 93.5356C34.0371 93.8662 34.6716 93.7858 34.2231 93.3938C33.9745 93.1766 31.7311 92.5078 31.6847 92.6371ZM35.1733 93.815C35.0233 94.2848 34.2675 97.2978 34.2939 97.3209C34.6549 97.6371 34.8297 97.4839 35.0373 96.669C35.1378 96.2742 35.2446 95.9419 35.2746 95.9304C35.3291 95.9094 37.1682 96.3668 37.2145 96.4128C37.228 96.4262 37.1506 96.7769 37.0425 97.192C36.8255 98.0253 36.8216 97.9878 37.1334 98.0704C37.434 98.15 37.3876 98.2583 37.8758 96.3364C38.1137 95.3993 38.3181 94.6074 38.3298 94.5767C38.358 94.5025 37.8275 94.3451 37.7842 94.4148C37.7675 94.4417 37.6719 94.7801 37.5719 95.1667C37.4719 95.5533 37.3681 95.8696 37.3412 95.8696C37.2051 95.8696 35.3844 95.3834 35.3844 95.3471C35.3844 95.2934 35.701 94.0415 35.7403 93.9397C35.7723 93.8569 35.6623 93.7988 35.3705 93.7444C35.2285 93.7179 35.2012 93.7277 35.1733 93.815ZM39.0693 94.705C39.0568 94.7251 39.0336 94.8352 39.0179 94.9497L38.9892 95.1579L39.2883 95.2083C40.3238 95.3828 40.2291 95.3536 40.2018 95.4897C40.1179 95.9089 39.6998 98.541 39.7148 98.5558C39.8108 98.6513 40.2656 98.6267 40.2898 98.5248C40.3044 98.4636 40.4208 97.7547 40.5484 96.9493C40.8223 95.221 40.6866 95.4412 41.4056 95.5578C41.7341 95.6111 42.0167 95.6409 42.0337 95.624C42.0678 95.5901 42.147 95.2012 42.1244 95.1786C42.1132 95.1672 41.119 94.9998 39.1988 94.6859C39.1401 94.6763 39.0818 94.6849 39.0693 94.705ZM42.8508 95.3678C42.8508 95.4256 42.788 96.2478 42.7115 97.1951C42.5532 99.1526 42.5374 98.9971 42.8952 98.9971H43.1685L43.2021 98.4631L43.2357 97.9291L44.0413 97.9379C45.3055 97.9518 45.741 97.6621 45.7997 96.7677C45.8599 95.8516 45.3709 95.4528 44.038 95.3309C42.972 95.2334 42.8511 95.2371 42.8508 95.3678ZM44.6076 95.92C45.325 96.0996 45.462 97.0229 44.8234 97.3742C44.6788 97.4538 43.3681 97.4754 43.2949 97.3994C43.2783 97.3821 43.3641 96.166 43.396 95.9677L43.4215 95.8091L43.9123 95.839C44.1823 95.8554 44.4952 95.8919 44.6076 95.92Z" fill="#FEFDF9"/>
</svg>
