<svg width="94" height="91" viewBox="0 0 94 91" fill="none" xmlns="http://www.w3.org/2000/svg">
<path fill-rule="evenodd" clip-rule="evenodd" d="M41.8029 0.0590189C41.7544 0.065841 41.2021 0.105316 40.5756 0.146721C39.949 0.188083 39.4104 0.242616 39.3785 0.267888C39.3306 0.305775 39.3342 0.696399 39.3988 2.50205C39.4419 3.70558 39.5108 5.68466 39.5518 6.89999C39.6408 9.53099 39.3523 9.1883 41.4572 9.16311C45.0937 9.1196 46.6008 8.26657 47.237 5.89168C48.1582 2.4524 45.4504 -0.454061 41.8029 0.0590189ZM43.7221 1.06394C47.0915 1.87333 47.2858 6.96573 43.988 8.03205C43.4728 8.19861 43.1743 8.23023 41.8429 8.25924L40.6027 8.28627L40.5736 7.36789C40.5576 6.86275 40.5021 5.24696 40.4503 3.77723C40.3986 2.3075 40.3675 1.09406 40.3813 1.08067C40.5266 0.939379 43.1488 0.926206 43.7221 1.06394ZM53.9563 1.08599C52.0833 1.39239 50.6677 2.8099 50.2597 4.78752C49.0159 10.8171 58.1424 12.7373 59.6942 6.77252C60.564 3.42948 57.5982 0.490275 53.9563 1.08599ZM55.5754 2.01471C57.6832 2.34977 59.0131 3.98903 58.7773 5.96111C58.4767 8.47403 56.4757 9.91514 54.0745 9.34799C49.3682 8.23632 50.797 1.25505 55.5754 2.01471ZM64.6894 4.62868C64.5668 4.86617 64.0036 5.904 63.4377 6.93492C62.872 7.96584 62.1751 9.24378 61.8893 9.77475C61.6034 10.3057 61.213 11.0223 61.0217 11.3672C60.8304 11.712 60.6739 12.0138 60.6739 12.0377C60.6739 12.1195 63.6318 13.7441 64.2463 13.9998C67.2533 15.2508 69.5939 12.67 67.4522 10.4649C67.3052 10.3134 67.2097 10.2035 67.24 10.2206C68.0992 10.7052 69.6983 9.59591 69.9085 8.36955C70.1417 7.00829 69.3719 6.26871 66.1153 4.72483C64.7852 4.09432 64.9593 4.10603 64.6894 4.62868ZM66.5562 5.9179C68.4788 6.85146 68.9075 7.24599 68.9055 8.07993C68.9028 9.2173 67.8683 9.85537 66.6331 9.48143C66.2936 9.37872 63.943 8.19672 63.9413 8.12799C63.9398 8.0647 65.4155 5.39825 65.452 5.39825C65.4707 5.39825 65.9676 5.6321 66.5562 5.9179ZM33.3717 7.28285C17.1743 11.5348 4.80668 24.8651 2.0792 41.0109C1.73229 43.0645 1.72804 43.2573 2.03038 43.2318L2.16258 43.2206L2.24023 42.6414C4.4934 25.8251 16.7013 12.1483 33.4566 7.66875C34.379 7.42217 34.2852 7.47018 34.2292 7.27302C34.1728 7.07428 34.166 7.07436 33.3717 7.28285ZM64.7316 9.5243C66.153 10.2606 66.4451 10.4389 66.7876 10.7792C68.1358 12.119 66.7755 13.9239 64.8895 13.2978C64.4374 13.1477 62.2307 12.01 62.0042 11.8102C61.9543 11.7663 62.0536 11.5568 62.5852 10.5836C62.9377 9.93814 63.2818 9.299 63.3497 9.16333C63.505 8.85307 63.3654 8.8166 64.7316 9.5243ZM74.2385 10.2994C73.9991 10.5654 73.3469 11.2937 72.7894 11.9178C72.2319 12.5419 71.3585 13.5175 70.8487 14.0856C69.5996 15.4777 68.6873 16.5122 68.6782 16.5469C68.6686 16.5834 69.3477 17.1547 69.4007 17.1547C69.4225 17.1547 69.9132 16.6237 70.4911 15.9748C71.0691 15.3258 71.5506 14.7948 71.5613 14.7948C71.5719 14.7948 71.9324 15.0893 72.3625 15.4492C72.7925 15.8091 73.2184 16.1614 73.3087 16.2322L73.473 16.3609L73.3216 18.0987C73.2383 19.0544 73.1586 19.9457 73.1444 20.0793L73.1185 20.3221L73.5632 20.6964C74.1087 21.1556 74.0225 21.3862 74.2072 18.9743C74.2938 17.8438 74.3713 16.8974 74.3795 16.8714C74.3892 16.8405 74.507 16.8626 74.7183 16.935C76.858 17.6678 79.0868 15.556 78.3583 13.4862C78.021 12.5278 77.4331 11.9304 74.9685 10.0414L74.674 9.81564L74.2385 10.2994ZM75.7242 11.7871C77.7704 13.4635 78.0801 14.5689 76.815 15.6804C75.785 16.5855 74.8419 16.3854 73.0558 14.8827C72.5703 14.4742 72.168 14.1361 72.162 14.1313C72.156 14.1266 72.4418 13.7961 72.7972 13.3969C74.6578 11.3068 74.8481 11.1031 74.9094 11.1364C74.9433 11.1548 75.3099 11.4476 75.7242 11.7871ZM80.8434 18.5254C76.7188 19.2611 75.21 23.6086 78.0562 26.5565C81.6107 30.238 87.9734 26.2363 85.9547 21.589C85.0418 19.4874 82.842 18.1689 80.8434 18.5254ZM82.6127 19.6386C85.2902 20.4737 86.2001 23.7568 84.2944 25.7066C82.0813 27.971 78.6171 27.1609 77.6845 24.1609C76.8709 21.5437 79.877 18.7852 82.6127 19.6386ZM22.1264 22.3768C21.4528 22.4013 21.5741 22.6647 22.3582 22.8799C24.7276 23.5301 26.3699 25.0645 26.9064 27.1294C27.1629 28.1168 27.1476 26.8994 27.1476 46.3099V64.2449L27.0505 64.7634C26.5166 67.6132 24.9194 69.09 21.2546 70.122C21.024 70.187 20.8154 70.2585 20.7911 70.281C20.7251 70.3421 44.9785 70.2994 45.9744 70.2366C61.4123 69.2634 69.2992 61.8848 70.0363 47.7258C70.8177 32.7152 62.3597 23.4749 46.8793 22.4268C46.2168 22.382 23.2566 22.3355 22.1264 22.3768ZM45.7095 25.0934C56.1144 25.7914 62.8493 34.8093 62.2598 47.2538C62.1411 49.76 62.1617 49.9504 62.6596 50.9438C63.2625 52.1466 63.4949 53.0744 63.5624 54.548L63.5859 55.0629L63.4971 54.784C63.1977 53.8436 63.0646 53.4978 62.7947 52.9604C62.2172 51.8107 61.4245 50.8072 60.3239 49.8326C59.0652 48.718 57.0207 47.4973 50.2682 43.8282C42.219 39.4547 39.3132 36.1819 38.8588 30.9779C38.803 30.3391 38.7853 30.3366 38.6527 30.9492C38.059 33.6919 38.9463 37.078 40.9855 39.8524C42.208 41.5156 43.5992 42.8557 48.4022 46.9965C53.6417 51.5135 54.9282 52.8877 56.1699 55.2935C58.092 59.0177 57.2211 62.4275 53.7616 64.7224C45.9095 69.9314 35.2171 67.7383 33.6145 60.5903C33.364 59.4727 33.3757 59.8773 33.3653 52.0379C33.3534 43.055 33.4743 44.1999 32.4311 43.1994C31.1771 41.9968 30.4009 40.9417 29.6329 39.3961C29.2401 38.6058 29.2553 38.6036 29.8831 39.3601C32.1764 42.1238 34.167 43.6019 40.7571 47.4344C48.9861 52.2202 51.2046 54.2144 52.5106 57.9996C52.7793 58.7785 52.7949 58.7489 52.7926 57.4657C52.7896 55.7828 52.3637 54.3644 51.3282 52.5877C50.0604 50.4122 48.8531 49.1662 43.868 44.8883C40.5664 42.055 38.9943 40.5973 38.09 39.5306C31.4418 31.6883 35.2913 24.3944 45.7095 25.0934ZM87.6449 29.9231C86.2732 30.2639 84.3116 30.7476 83.2858 30.998C82.2601 31.2485 81.4208 31.4721 81.4208 31.4949C81.4208 31.5178 81.4814 31.726 81.5554 31.9575L81.6899 32.3784L85.0725 31.5485L88.455 30.7186L88.2376 30.924C88.118 31.037 86.868 32.1622 85.4599 33.4245C84.0517 34.6868 82.8773 35.7468 82.85 35.7801C82.7673 35.8811 83.0273 36.6272 83.1545 36.6539C83.2528 36.6745 86.6458 37.1219 89.2972 37.4639L90.7068 37.6458L90.158 37.8537C89.8562 37.9681 88.6558 38.4137 87.4904 38.844C84.609 39.9079 84.2737 40.034 84.2314 40.0691C84.1877 40.1053 84.4535 40.968 84.5083 40.968C84.5292 40.968 84.7816 40.8795 85.0692 40.7713C85.3569 40.6632 86.2975 40.317 87.1593 40.002C89.5652 39.1229 93.005 37.8347 93.0358 37.8013C93.1222 37.7076 92.7952 36.936 92.6594 36.913C92.5842 36.9003 91.4003 36.7559 90.0286 36.592C83.2152 35.7783 84.0202 35.9187 84.3906 35.6086C84.5417 35.4821 85.3605 34.766 86.2103 34.0173C87.06 33.2685 88.3945 32.0937 89.1757 31.4066L90.5962 30.1573L90.4887 29.8238C90.4296 29.6405 90.3692 29.447 90.3546 29.3939C90.3165 29.2556 90.3904 29.2412 87.6449 29.9231ZM88.925 43.3941C86.825 43.4724 85.0002 43.5378 84.8701 43.5394L84.6335 43.5424L84.664 44.4327C84.7789 47.7897 84.8618 49.6932 84.8946 49.725C84.9155 49.7453 85.1208 49.7479 85.3507 49.7308L85.7689 49.6995L85.7551 49.0988C85.7475 48.7684 85.7129 47.7548 85.6782 46.8462C85.6435 45.9377 85.6149 45.0369 85.6147 44.8446L85.6144 44.4948L86.111 44.469C86.3841 44.4548 87.0992 44.4288 87.7001 44.4111L88.7927 44.3791L88.7934 44.5078C88.7955 44.9337 88.9695 49.0491 88.9861 49.0652C89.0629 49.1398 89.8961 49.0181 89.8955 48.9324C89.8952 48.8824 89.8561 47.8384 89.8086 46.6125C89.7612 45.3866 89.7317 44.3745 89.743 44.3635C89.7868 44.3209 92.8719 44.2309 92.8976 44.2714C92.9119 44.294 92.9583 45.3121 93.0007 46.534C93.043 47.7558 93.0896 48.9149 93.1042 49.1096L93.1307 49.4635H93.5386C94.0877 49.4635 94.0483 49.7911 93.9174 46.3099L93.8028 43.2635L93.2731 43.2576C92.9817 43.2544 91.0251 43.3158 88.925 43.3941ZM1.70831 46.2348L0.194271 46.2466L0.207468 46.4928L0.220712 46.739L1.40311 46.7604L2.58556 46.7819L1.61283 47.3611C0.341971 48.1179 0.35358 48.0337 1.43582 48.6483C1.87217 48.8961 2.32357 49.1567 2.43887 49.2275L2.64855 49.3563L1.43463 49.3777L0.220712 49.3992V49.6352V49.8712L1.89813 49.8831C3.87695 49.8972 3.77418 49.9097 3.77418 49.6549C3.77418 49.4238 3.84596 49.4744 2.33196 48.637L1.30913 48.0713L2.51957 47.3717L3.73004 46.6721V46.4374V46.2026L3.47622 46.2127C3.33664 46.2183 2.54106 46.2282 1.70831 46.2348ZM1.98809 51.1853C0.0964058 51.3845 0.3165 51.1724 0.481725 52.6372L0.619498 53.8585L0.839456 53.8455C0.960451 53.8383 1.0671 53.8251 1.07654 53.816C1.08939 53.8037 0.966852 52.548 0.890485 51.9097C0.883908 51.8549 1.90042 51.6994 1.94479 51.7485C1.95004 51.7543 1.98641 52.0487 2.02561 52.4027C2.06481 52.7566 2.10838 53.1306 2.12237 53.2338L2.14788 53.4212L2.36608 53.4008C2.64669 53.3747 2.63005 53.4631 2.52804 52.5403C2.4236 51.5953 2.37487 51.6946 2.97287 51.6329L3.45393 51.5831L3.5544 52.5185L3.65487 53.4539H3.8664C4.13372 53.4539 4.13915 52.6594 3.88216 51.1476C3.85289 50.9753 4.01176 50.9721 1.98809 51.1853ZM84.6874 52.0969C84.6874 52.1058 84.5672 52.603 84.4202 53.2018C83.794 55.7542 83.7379 56.3569 84.0292 57.4005C84.9903 60.8426 90.1907 61.7736 92.3024 58.8816C92.921 58.0344 93.1328 57.3492 93.5157 54.9569C93.7251 53.6484 93.9792 53.8704 91.7943 53.4536C90.7867 53.2614 88.8032 52.8739 87.3863 52.5925C84.9252 52.1037 84.6874 52.06 84.6874 52.0969ZM88.7947 53.8621C90.6509 54.2282 92.2744 54.5483 92.4026 54.5734C92.6327 54.6184 92.6354 54.6208 92.6128 54.7551C92.0387 58.1673 91.4199 59.1367 89.5803 59.5057C86.7207 60.0792 84.379 57.9505 84.9053 55.256C85.0523 54.5035 85.3614 53.1964 85.3924 53.1964C85.4075 53.1964 86.9386 53.496 88.7947 53.8621ZM0.573852 54.5695L0 54.6816L0.00759238 54.8882C0.0178334 55.1656 0.0353133 55.1743 0.435244 55.1005C0.858129 55.0225 0.762076 54.8337 1.09323 56.3938L1.37544 57.7231L1.26155 57.7518C1.19895 57.7677 1.03152 57.8032 0.889472 57.8309L0.63124 57.8811L0.661345 58.081C0.708269 58.3924 0.691846 58.3905 1.62656 58.1876L1.92885 58.1219L1.89892 57.9278C1.88241 57.821 1.85959 57.7099 1.84816 57.6809C1.83324 57.6431 2.24915 57.5467 3.31886 57.3401C4.1392 57.1817 4.81736 57.0453 4.82588 57.037C4.84265 57.0206 4.36635 54.7015 4.34123 54.6775C4.33285 54.6695 3.92868 54.7282 3.44311 54.8081C1.95207 55.0533 1.34431 55.0036 1.20804 54.625L1.1477 54.4574L0.573852 54.5695ZM4.1034 55.8459C4.1731 56.194 4.23816 56.5091 4.24801 56.5461C4.26845 56.6231 1.80755 57.1414 1.74614 57.073C1.72818 57.053 1.63932 56.6794 1.54869 56.2428C1.45811 55.8062 1.37433 55.4157 1.36254 55.3751C1.34277 55.3067 1.35293 55.3059 1.49683 55.3643C1.72792 55.4582 2.44955 55.4407 3.17826 55.3237C3.51816 55.269 3.83686 55.2218 3.88648 55.2187C3.96827 55.2136 3.98849 55.2721 4.1034 55.8459ZM4.12732 58.5368C3.62962 58.6855 2.90458 58.9044 2.51612 59.0233L1.80984 59.2392L1.81572 59.366C1.83081 59.6901 1.81885 59.6835 3.45592 60.2755C4.28844 60.5767 4.97755 60.8307 4.98726 60.8402C4.99697 60.8496 4.4587 61.0198 3.79104 61.2184C2.42982 61.6234 2.51215 61.5793 2.58282 61.8656C2.65252 62.1479 2.40091 62.1962 5.09846 61.3828C6.10597 61.079 6.04381 61.1163 5.97283 60.8584C5.90476 60.611 6.07643 60.6938 4.31493 60.0596C2.56459 59.4295 2.59827 59.5564 4.06574 59.12L5.28381 58.7577L5.26121 58.6266C5.18648 58.1927 5.25927 58.1985 4.12732 58.5368ZM5.84888 62.3852C5.56968 62.5036 4.87545 62.7918 4.30619 63.0257C3.73688 63.2596 3.25524 63.4664 3.23582 63.4853C3.2164 63.5042 3.34172 63.8373 3.51432 64.2255C3.95252 65.2112 4.3479 66.128 4.34799 66.1586C4.34799 66.1727 4.21397 66.2385 4.05007 66.3047C3.6486 66.4669 3.60649 66.5682 3.8121 66.8767C3.96656 67.1084 5.02434 66.4618 4.91235 66.2041C4.85987 66.0834 4.82566 65.9775 4.8363 65.9688C4.84693 65.96 5.47146 65.6964 6.22409 65.3828C6.97672 65.0693 7.59886 64.8075 7.60663 64.8012C7.63916 64.7744 7.42278 64.3522 7.37656 64.3522C7.34871 64.3522 6.72542 64.6032 5.99142 64.91C5.25746 65.2168 4.64035 65.4678 4.62008 65.4678C4.56442 65.4678 3.85465 63.8275 3.89429 63.7905C3.92193 63.7646 5.33462 63.1641 6.43474 62.7105C6.66251 62.6167 6.66172 62.62 6.52721 62.3071C6.45005 62.1275 6.45853 62.1266 5.84888 62.3852ZM80.3785 65.8949C80.1064 66.005 80.0965 66.0564 80.0965 67.3615V68.5571H78.8613H77.626L77.4818 68.6823L77.3376 68.8075V69.8587V70.91L77.4447 71.0208C77.6113 71.1932 77.7907 71.2168 78.9356 71.217C80.8441 71.2174 81.2421 70.9931 81.7521 69.6293C82.0227 68.9054 82.1497 68.7259 82.7175 68.2652L82.8392 68.1665L82.8252 67.1612L82.8113 66.1558L82.6671 66.0156L82.5228 65.8754L81.4973 65.8662C80.9333 65.8612 80.4298 65.8741 80.3785 65.8949ZM6.56863 66.7637L5.05913 67.5844L5.17496 67.7811C5.23861 67.8893 5.29357 67.9824 5.29701 67.988C5.3035 67.9985 8.43898 68.4702 8.51853 68.4726C8.60187 68.4752 8.41021 68.5881 7.34915 69.1616L6.29309 69.7325L6.42339 69.9493C6.49508 70.0685 6.56898 70.1623 6.58756 70.1578C6.62014 70.1498 9.60713 68.5589 9.63847 68.5328C9.64694 68.5257 9.60121 68.4259 9.53685 68.3109L9.41983 68.102L7.82196 67.8738C6.94313 67.7483 6.20886 67.6322 6.19028 67.6158C6.17165 67.5994 6.66309 67.3169 7.28232 66.9881C7.90151 66.6593 8.40839 66.3782 8.40866 66.3635C8.40989 66.2951 8.17506 65.9399 8.1295 65.9414C8.10121 65.9423 7.39881 66.3123 6.56863 66.7637ZM82.577 68.7049C82.3599 68.8956 82.2203 69.149 81.9966 69.7586C81.6378 70.7362 81.0558 71.3017 80.2944 71.4127L80.0965 71.4416V72.5137V73.5857L80.2466 73.7316L80.3967 73.8775H81.4391H82.4815L82.6464 73.7307L82.8113 73.5839L82.8249 72.4036L82.8385 71.2234L84.0533 71.2096L85.2681 71.1958L85.4192 71.0356L85.5702 70.8753V69.8621V68.8488L85.4201 68.7029L85.27 68.5571H84.0077H82.7454L82.577 68.7049ZM9.77663 69.7952C9.54546 69.9552 8.9992 70.3242 8.56272 70.6152C8.12619 70.9061 7.67488 71.2105 7.55971 71.2914L7.35034 71.4387L7.48304 71.6261C7.556 71.7292 7.63263 71.8238 7.65325 71.8362C7.67391 71.8486 7.96154 71.6758 8.29239 71.4522C8.62323 71.2286 8.91166 71.0457 8.93334 71.0457C8.96476 71.0457 9.98362 72.4409 10.0337 72.5525C10.041 72.5688 9.76785 72.7699 9.42672 72.9994C8.71995 73.4748 8.76158 73.4149 8.95439 73.6785L9.10231 73.8808L10.1131 73.1894C10.6691 72.8091 11.3176 72.3693 11.5543 72.2121C12.0454 71.8858 12.0279 71.9176 11.848 71.6781C11.6816 71.4566 11.7391 71.44 11.0463 71.9099C10.7317 72.1233 10.4586 72.2816 10.4393 72.2617C10.3584 72.1782 9.38028 70.7861 9.38028 70.7544C9.38028 70.7354 9.60377 70.5676 9.87688 70.3813C10.15 70.1951 10.4166 70.011 10.4692 69.9722L10.565 69.9017L10.4309 69.7014C10.2626 69.4498 10.279 69.4474 9.77663 69.7952ZM11.8081 73.3487C10.7458 73.7182 10.2633 74.8251 10.737 75.806C11.0661 76.4876 12.2755 77.1829 12.3611 76.7398C12.4143 76.4638 12.3799 76.3929 12.1764 76.3593C11.1818 76.1952 10.7299 74.985 11.3948 74.2662C12.1912 73.4052 13.6451 73.8554 13.7421 74.9931C13.7653 75.2659 13.7924 75.2919 14.054 75.2928L14.2473 75.2934L14.2274 74.9598C14.1619 73.8601 12.8499 72.9863 11.8081 73.3487ZM77.2876 75.0896C69.2419 84.1556 57.2508 89.5732 45.2129 89.5811L44.7826 89.5814V89.7745C44.7826 89.9638 44.7853 89.9676 44.926 89.9672C57.3691 89.9319 69.172 84.6843 77.4474 75.508C78.0333 74.8582 78.024 74.8751 77.8652 74.7516C77.6905 74.6157 77.7272 74.5943 77.2876 75.0896ZM14.8976 75.7547C14.7941 75.8668 14.2511 76.4073 13.691 76.9558L12.6726 77.9532L12.8452 78.125C13.0748 78.3536 13.0394 78.3696 13.6255 77.7715L14.1406 77.2457L14.3895 77.4846L14.6384 77.7236L14.5045 78.6428L14.3707 79.562L14.5773 79.7659C14.8427 80.0278 14.8209 80.0733 15.0003 78.8839C15.1839 77.6668 14.9964 77.8584 16.1917 77.6662C16.8257 77.5643 17.1935 77.4869 17.1935 77.4555C17.1935 77.3566 16.837 77.0871 16.7368 77.1103C16.6845 77.1224 16.2671 77.194 15.8091 77.2696L14.9766 77.4069L14.7283 77.1655L14.4799 76.9241L14.998 76.4192C15.5805 75.8515 15.5687 75.8747 15.3705 75.688C15.1772 75.5059 15.1199 75.514 14.8976 75.7547ZM16.7079 79.1142C16.1617 79.7741 15.6662 80.3734 15.6068 80.4461L15.4989 80.5784L15.673 80.7232C15.8932 80.9064 15.7023 80.929 17.5053 80.5066C19.3111 80.0835 19.1745 80.0806 18.7936 80.5335C17.3354 82.2678 17.4318 82.1119 17.6965 82.3082C17.9111 82.4672 17.6745 82.7072 19.723 80.2522L20.1143 79.7832L19.9451 79.6424C19.7267 79.4607 19.874 79.4432 18.079 79.8642C16.2228 80.2996 16.3413 80.3956 17.3096 79.2409C17.7548 78.7099 18.1188 78.2561 18.1184 78.2325C18.1178 78.1937 17.7612 77.9081 17.7189 77.9126C17.7091 77.9137 17.2542 78.4544 16.7079 79.1142ZM22.0001 80.1741C21.7277 80.8594 22.9182 81.6149 23.4386 81.087C23.5084 81.016 23.5572 80.9515 23.5468 80.9437C23.5364 80.9358 23.4621 80.8851 23.3817 80.8311L23.2353 80.7328L23.136 80.8235C22.8596 81.0759 22.3123 80.7471 22.3782 80.3683C22.4039 80.2206 22.3945 80.1988 22.2762 80.1309C22.0992 80.0293 22.0549 80.0362 22.0001 80.1741ZM20.6098 81.0734C18.9347 83.5588 19.0715 83.3072 19.3114 83.4615C19.538 83.6073 19.3595 83.6481 21.0813 83.0572C22.8141 82.4626 22.7057 82.4708 22.3696 82.9594C22.2261 83.1679 21.9134 83.6353 21.6746 83.9981L21.2405 84.6578L21.344 84.7337C21.4009 84.7754 21.5006 84.8401 21.5655 84.8773L21.6836 84.9452L22.3238 83.9916C23.6706 81.9856 23.6158 82.0763 23.5226 82.0085C23.2242 81.7916 23.2234 81.7916 22.601 82.0087C19.6894 83.0244 19.9037 83.0874 20.9573 81.5254C21.5333 80.6715 21.5246 80.7048 21.2147 80.5356L21.0375 80.4387L20.6098 81.0734ZM25.9152 83.3972C25.8586 83.4862 24.5231 86.3728 24.5117 86.4307C24.5032 86.474 24.6136 86.5449 24.8522 86.6493C27.5133 87.8138 27.2376 87.649 27.0814 87.9813C26.8755 88.4191 26.8737 88.3993 27.1287 88.506C27.2531 88.558 27.3606 88.5943 27.3677 88.5868C27.3848 88.5685 27.876 87.5134 27.876 87.4948C27.876 87.4869 27.7697 87.4269 27.6399 87.3617L27.4038 87.243L28.0151 85.9155C28.7289 84.3656 28.6805 84.5516 28.4004 84.4345C28.1239 84.3188 28.2034 84.2142 27.6355 85.4409C27.3733 86.0073 27.0966 86.5985 27.0208 86.7547L26.8828 87.0387L26.0661 86.6765C25.0807 86.2394 25.1547 86.3081 25.3095 85.9743C26.0487 84.3803 26.4207 83.5619 26.4101 83.5532C26.308 83.4697 25.9424 83.3545 25.9152 83.3972ZM29.7836 85.1513C28.9859 87.3292 28.6705 88.204 28.6705 88.2398C28.6705 88.2844 28.9624 88.3935 30.3174 88.8553L31.0593 89.1082L31.1187 88.9694C31.2499 88.663 31.2914 88.6946 30.3038 88.3484C29.8061 88.1739 29.3832 88.0162 29.364 87.9979C29.3333 87.9686 29.5829 87.2251 29.6734 87.0761C29.7003 87.0319 29.8733 87.0791 30.4583 87.2903C31.3631 87.6168 31.3238 87.6136 31.4143 87.369C31.4854 87.1768 31.4849 87.1725 31.3919 87.1384C31.3397 87.1192 30.9792 86.9914 30.5907 86.8543C30.2023 86.7171 29.8767 86.5994 29.8672 86.5925C29.8382 86.5717 30.1785 85.6769 30.2154 85.6769C30.2343 85.6769 30.6402 85.812 31.1173 85.9772C31.9949 86.281 32.5913 86.2072 32.1697 85.8469C31.936 85.6472 29.8272 85.0324 29.7836 85.1513ZM33.0629 86.234C32.9219 86.6658 32.2114 89.4353 32.2362 89.4566C32.5757 89.7473 32.7399 89.6064 32.935 88.8573C33.0295 88.4945 33.1299 88.189 33.1581 88.1785C33.2094 88.1592 34.9381 88.5796 34.9816 88.6219C34.9943 88.6342 34.9216 88.9565 34.8199 89.3381C34.616 90.104 34.6123 90.0696 34.9054 90.1455C35.188 90.2187 35.1444 90.3182 35.6032 88.5516C35.8269 87.6903 36.019 86.9624 36.03 86.9342C36.0566 86.866 35.5579 86.7213 35.5171 86.7853C35.5014 86.8101 35.4116 87.1211 35.3176 87.4765C35.2235 87.8318 35.126 88.1226 35.1007 88.1226C34.9728 88.1226 33.2614 87.6757 33.2614 87.6423C33.2614 87.5929 33.5589 86.4422 33.5959 86.3486C33.6259 86.2725 33.5226 86.2191 33.2483 86.1691C33.1148 86.1448 33.0892 86.1537 33.0629 86.234ZM36.7251 87.0521C36.7134 87.0706 36.6916 87.1718 36.6768 87.277L36.6498 87.4684L36.931 87.5147C37.9044 87.6751 37.8153 87.6483 37.7897 87.7734C37.7108 88.1587 37.3178 90.5781 37.3319 90.5917C37.4222 90.6795 37.8497 90.6569 37.8724 90.5632C37.8861 90.507 37.9955 89.8553 38.1155 89.115C38.3729 87.5264 38.2454 87.7288 38.9212 87.836C39.23 87.885 39.4957 87.9123 39.5117 87.8968C39.5438 87.8656 39.6181 87.5082 39.597 87.4874C39.5864 87.4769 38.6518 87.3231 36.8469 87.0345C36.7917 87.0257 36.7369 87.0336 36.7251 87.0521ZM40.2798 87.6613C40.2797 87.7144 40.2207 88.4702 40.1488 89.3409C40 91.1403 39.9851 90.9973 40.3215 90.9973H40.5784L40.61 90.5065L40.6415 90.0157L41.3988 90.0238C42.5872 90.0365 42.9965 89.7702 43.0517 88.9481C43.1083 88.106 42.6487 87.7394 41.3958 87.6274C40.3937 87.5378 40.2801 87.5412 40.2798 87.6613ZM41.9312 88.1689C42.6055 88.334 42.7343 89.1827 42.134 89.5056C41.998 89.5787 40.766 89.5986 40.6973 89.5287C40.6816 89.5128 40.7622 88.395 40.7922 88.2127L40.8162 88.067L41.2776 88.0945C41.5314 88.1095 41.8254 88.143 41.9312 88.1689Z" fill="#232323"/>
</svg>
